HIERARCHY
ROOT hip
{
  OFFSET 0 0 0
  CHANNELS 6 Xposition Yposition Zposition Zrotation Yrotation Xrotation
  JOINT abdomen
  {
    OFFSET 0 20.6881 -0.73152
    CHANNELS 3 Zrotation Xrotation Yrotation
    JOINT chest
    {
      OFFSET 0 11.7043 -0.48768
      CHANNELS 3 Zrotation Xrotation Yrotation
      JOINT neck
      {
        OFFSET 0 22.1894 -2.19456
        CHANNELS 3 Zrotation Xrotation Yrotation
        JOINT head
        {
          OFFSET -0.24384 7.07133 1.2192
          CHANNELS 3 Zrotation Xrotation Yrotation
          JOINT leftEye
          {
            OFFSET 4.14528 8.04674 8.04672
            CHANNELS 3 Zrotation Xrotation Yrotation
            End Site
            {
              OFFSET 1 0 0
            }
          }
          JOINT rightEye
          {
            OFFSET -3.6576 8.04674 8.04672
            CHANNELS 3 Zrotation Xrotation Yrotation
            End Site
            {
              OFFSET 1 0 0
            }
          }
        }
      }
      JOINT rCollar
      {
        OFFSET -2.68224 19.2634 -4.8768
        CHANNELS 3 Zrotation Xrotation Yrotation
        JOINT rShldr
        {
          OFFSET -8.77824 -1.95073 1.46304
          CHANNELS 3 Zrotation Xrotation Yrotation
          JOINT rForeArm
          {
            OFFSET -28.1742 -1.7115 0.48768
            CHANNELS 3 Zrotation Xrotation Yrotation
            JOINT rHand
            {
              OFFSET -22.5879 0.773209 7.07136
              CHANNELS 3 Zrotation Xrotation Yrotation
              JOINT rThumb1
              {
                OFFSET -1.2192 -0.487915 3.41376
                CHANNELS 3 Zrotation Xrotation Yrotation
                JOINT rThumb2
                {
                  OFFSET -3.37035 -0.52449 3.41376
                  CHANNELS 3 Zrotation Xrotation Yrotation
                  End Site
                  {
                    OFFSET -1.78271 -1.18214 1.43049
                  }
                }
              }
              JOINT rIndex1
              {
                OFFSET -7.75947 0.938293 5.60832
                CHANNELS 3 Zrotation Xrotation Yrotation
                JOINT rIndex2
                {
                  OFFSET -2.54057 -0.884171 1.56538
                  CHANNELS 3 Zrotation Xrotation Yrotation
                  End Site
                  {
                    OFFSET -1.62519 -0.234802 1.16502
                  }
                }
              }
              JOINT rMid1
              {
                OFFSET -8.24714 1.18213 3.41376
                CHANNELS 3 Zrotation Xrotation Yrotation
                JOINT rMid2
                {
                  OFFSET -3.10165 -0.590103 1.0647
                  CHANNELS 3 Zrotation Xrotation Yrotation
                  End Site
                  {
                    OFFSET -2.48547 -0.328903 0.83742
                  }
                }
              }
              JOINT rRing1
              {
                OFFSET -8.82822 0.546677 1.51678
                CHANNELS 3 Zrotation Xrotation Yrotation
                JOINT rRing2
                {
                  OFFSET -2.60934 -0.819778 -0.0198488
                  CHANNELS 3 Zrotation Xrotation Yrotation
                  End Site
                  {
                    OFFSET -2.33842 -0.294052 0.168128
                  }
                }
              }
              JOINT rPinky1
              {
                OFFSET -8.27202 -0.0477905 -0.4584
                CHANNELS 3 Zrotation Xrotation Yrotation
                JOINT rPinky2
                {
                  OFFSET -1.82734 -0.647385 -0.700984
                  CHANNELS 3 Zrotation Xrotation Yrotation
                  End Site
                  {
                    OFFSET -1.69225 -0.51767 -0.607171
                  }
                }
              }
            }
          }
        }
      }
      JOINT lCollar
      {
        OFFSET 2.68224 19.2634 -4.8768
        CHANNELS 3 Zrotation Xrotation Yrotation
        JOINT lShldr
        {
          OFFSET 8.77824 -1.95073 1.46304
          CHANNELS 3 Zrotation Xrotation Yrotation
          JOINT lForeArm
          {
            OFFSET 28.1742 -1.7115 0.48768
            CHANNELS 3 Zrotation Xrotation Yrotation
            JOINT lHand
            {
              OFFSET 22.5879 0.773209 7.07136
              CHANNELS 3 Zrotation Xrotation Yrotation
              JOINT lThumb1
              {
                OFFSET 1.2192 -0.487915 3.41376
                CHANNELS 3 Zrotation Xrotation Yrotation
                JOINT lThumb2
                {
                  OFFSET 3.37035 -0.52449 3.41376
                  CHANNELS 3 Zrotation Xrotation Yrotation
                  End Site
                  {
                    OFFSET 1.78271 -1.18214 1.43049
                  }
                }
              }
              JOINT lIndex1
              {
                OFFSET 7.75947 0.938293 5.60832
                CHANNELS 3 Zrotation Xrotation Yrotation
                JOINT lIndex2
                {
                  OFFSET 2.54057 -0.884171 1.56538
                  CHANNELS 3 Zrotation Xrotation Yrotation
                  End Site
                  {
                    OFFSET 1.62519 -0.234802 1.16502
                  }
                }
              }
              JOINT lMid1
              {
                OFFSET 8.24714 1.18213 3.41376
                CHANNELS 3 Zrotation Xrotation Yrotation
                JOINT lMid2
                {
                  OFFSET 3.10165 -0.590103 1.0647
                  CHANNELS 3 Zrotation Xrotation Yrotation
                  End Site
                  {
                    OFFSET 2.48547 -0.328903 0.83742
                  }
                }
              }
              JOINT lRing1
              {
                OFFSET 8.82822 0.546677 1.51678
                CHANNELS 3 Zrotation Xrotation Yrotation
                JOINT lRing2
                {
                  OFFSET 2.60934 -0.819778 -0.0198488
                  CHANNELS 3 Zrotation Xrotation Yrotation
                  End Site
                  {
                    OFFSET 2.33842 -0.294052 0.168128
                  }
                }
              }
              JOINT lPinky1
              {
                OFFSET 8.27202 -0.0477905 -0.4584
                CHANNELS 3 Zrotation Xrotation Yrotation
                JOINT lPinky2
                {
                  OFFSET 1.82734 -0.647385 -0.700984
                  CHANNELS 3 Zrotation Xrotation Yrotation
                  End Site
                  {
                    OFFSET 1.69225 -0.51767 -0.607171
                  }
                }
              }
            }
          }
        }
      }
    }
  }
  JOINT rButtock
  {
    OFFSET -8.77824 4.35084 1.2192
    CHANNELS 3 Zrotation Xrotation Yrotation
    JOINT rThigh
    {
      OFFSET 0 -1.70687 -2.19456
      CHANNELS 3 Zrotation Xrotation Yrotation
      JOINT rShin
      {
        OFFSET 0 -36.8199 0.73152
        CHANNELS 3 Zrotation Xrotation Yrotation
        JOINT rFoot
        {
          OFFSET 0.73152 -45.1104 -5.12064
          CHANNELS 3 Zrotation Xrotation Yrotation
          End Site
          {
            OFFSET -1.1221 -3.69964 12.103
          }
        }
      }
    }
  }
  JOINT lButtock
  {
    OFFSET 8.77824 4.35084 1.2192
    CHANNELS 3 Zrotation Xrotation Yrotation
    JOINT lThigh
    {
      OFFSET 0 -1.70687 -2.19456
      CHANNELS 3 Zrotation Xrotation Yrotation
      JOINT lShin
      {
        OFFSET 0 -36.8199 0.73152
        CHANNELS 3 Zrotation Xrotation Yrotation
        JOINT lFoot
        {
          OFFSET -0.73152 -45.1104 -5.12064
          CHANNELS 3 Zrotation Xrotation Yrotation
          End Site
          {
            OFFSET 1.1221 -3.69964 12.103
          }
        }
      }
    }
  }
}
MOTION
Frames:	9
Frame Time:	0.00833333
9.17107 83.0696 181.835 0.0 0.0 0.0 -3.29161 -0.00200109 -0.0897122 -0.910493 0.0108273 -0.157566 4.62793e-14 7.95139e-16 5.46658e-16 1.40708e-13 3.18055e-15 1.28899e-15 -0.0 0.0 0.0 -0.0 0.0 0.0 2.36063e-14 2.07714e-16 3.97569e-16 4.93024e-13 4.63417e-15 7.35503e-15 8.45083e-12 -2.38164e-12 1.59028e-14 9.67455e-11 3.34239e-12 1.05276e-12 2.28199e-10 2.08122e-12 2.33453e-12 3.94077e-10 3.59085e-12 4.02738e-12 2.28203e-10 2.08247e-12 2.32499e-12 7.73091 5.47488 0.417314 2.28198e-10 2.08128e-12 2.33453e-12 2.90554 0.965183 0.102902 2.28201e-10 2.08108e-12 2.33453e-12 10.2786 0.731801 0.0259123 2.28194e-10 2.08128e-12 2.34407e-12 2.22167 -0.733487 -0.20892 2.34078e-14 2.13538e-16 0.0 4.9005e-13 4.02539e-15 5.96354e-15 8.45625e-12 2.67842e-12 1.59028e-14 9.67496e-11 -1.74093e-12 1.08775e-12 2.28217e-10 2.03682e-12 2.34725e-12 3.94136e-10 3.52087e-12 4.04726e-12 2.28212e-10 2.03635e-12 2.35361e-12 -7.73091 5.47488 -0.417314 2.28218e-10 2.03595e-12 2.34089e-12 -2.90554 0.965183 -0.102902 2.28208e-10 2.03685e-12 2.34486e-12 -10.2786 0.731801 -0.0259123 2.28228e-10 2.04033e-12 2.33135e-12 -2.22167 -0.733487 0.20892 -2.03217e-16 0.0 -3.88251e-19 -2.14074 -1.93291 0.0183709 -0.00780719 -2.07877 -0.0636302 -0.355911 4.00069 0.117275 2.03217e-16 0.0 3.88251e-19 -2.881 -9.67715 0.339 -0.0100192 11.9463 -0.261545 0.458804 -2.28004 -0.00598616
3.07769 80.3244 171.659 -150.647 -82.817 168.36 -2.61773 -9.4506 0.157048 -0.57952 1.71742 -0.24301 1.79266 -1.26827 1.3926 -1.26134 1.91202 2.04393 -0.0 0.0 0.0 -0.0 0.0 0.0 8.35789e-14 -5.62407e-13 6.55275e-14 21.5924 6.57458 -3.84446 -3.28801 -1.34688 5.28433 0.0318383 -3.96997 -0.553162 -3.33606e-10 -7.22962e-11 -9.13406e-10 -5.6897e-10 -1.22968e-10 -1.58296e-09 -3.33602e-10 -7.22942e-11 -9.13413e-10 7.73091 5.47488 0.417314 -3.33607e-10 -7.22951e-11 -9.13407e-10 2.90554 0.965183 0.102902 -3.33603e-10 -7.22956e-11 -9.13406e-10 10.2786 0.731801 0.0259123 -3.33612e-10 -7.22957e-11 -9.13396e-10 2.22167 -0.733487 -0.20892 8.34717e-14 -5.62404e-13 6.52138e-14 -21.0729 12.6888 1.49115 4.47504 -2.08677 -6.93067 -0.188981 -9.66939 1.29011 -3.5839e-10 1.39625e-10 1.52419e-09 -6.55543e-10 2.44713e-10 2.61736e-09 -3.58397e-10 1.39625e-10 1.52419e-09 -7.73091 5.47488 -0.417314 -3.5839e-10 1.39624e-10 1.52418e-09 -2.90554 0.965183 -0.102902 -3.58398e-10 1.39625e-10 1.52418e-09 -10.2786 0.731801 -0.0259123 -3.58382e-10 1.39628e-10 1.52417e-09 -2.22167 -0.733487 0.20892 -2.03217e-16 0.0 -3.88251e-19 -0.618348 -8.98916 5.28388 0.0167649 4.60846 0.122126 -0.872688 0.844457 -2.84876 2.03217e-16 0.0 3.88251e-19 2.69581 -9.86644 0.36024 -0.0146667 12.2529 -0.304328 0.586245 -2.39494 -0.0151448
3.08039 80.3253 171.654 -150.785 -82.7749 168.497 -1.80683 -19.4426 0.440377 -0.227119 3.523 -0.333573 3.7587 -2.60122 2.86529 -2.75215 3.91936 4.20828 -0.0 0.0 0.0 -0.0 0.0 0.0 1.51827e-13 -1.19222e-12 1.39944e-13 45.4053 13.395 -8.07664 -6.48858 -2.72857 10.8697 -0.0185927 -8.13243 -1.14222 -9.59901e-10 -1.45466e-10 -1.97931e-09 -1.64208e-09 -2.47185e-10 -3.43006e-09 -9.59897e-10 -1.45463e-10 -1.97932e-09 7.73091 5.47488 0.417314 -9.59902e-10 -1.45464e-10 -1.97931e-09 2.90554 0.965183 0.102902 -9.59897e-10 -1.45464e-10 -1.97931e-09 10.2786 0.731801 0.0259123 -9.59908e-10 -1.45465e-10 -1.9793e-09 2.22167 -0.733487 -0.20892 1.5182e-13 -1.19222e-12 1.39721e-13 -44.1398 26.0606 3.32764 8.65891 -4.18931 -14.2832 0.111746 -19.864 2.78058 -1.01034e-09 2.94321e-10 3.2682e-09 -1.82342e-09 5.16116e-10 5.61257e-09 -1.01035e-09 2.94321e-10 3.2682e-09 -7.73091 5.47488 -0.417314 -1.01034e-09 2.9432e-10 3.26819e-09 -2.90554 0.965183 -0.102902 -1.01034e-09 2.94321e-10 3.26819e-09 -10.2786 0.731801 -0.0259123 -1.01033e-09 2.94323e-10 3.26818e-09 -2.22167 -0.733487 0.20892 -2.03217e-16 0.0 -3.88251e-19 2.44881 -16.2292 11.1686 -0.00516997 11.6754 0.324328 -1.77413 -2.47525 -5.99339 2.03217e-16 0.0 3.88251e-19 8.59174 -10.066 0.382672 -0.0190627 12.576 -0.3496 0.72094 -2.51586 -0.0248426
3.08117 80.3245 171.651 -151.111 -82.7384 168.811 -0.999802 -28.3459 0.731939 0.097769 5.13053 -0.415234 5.56309 -3.7958 4.18597 -4.19415 5.7068 6.15901 -0.0 0.0 0.0 -0.0 0.0 0.0 2.03524e-13 -1.68764e-12 1.95787e-13 67.5381 19.358 -12.1541 -9.12782 -3.90338 15.8864 -0.138721 -11.9054 -1.69191 -1.45722e-09 -2.21051e-10 -2.74489e-09 -2.49507e-09 -3.76087e-10 -4.75694e-09 -1.45721e-09 -2.21048e-10 -2.74489e-09 7.73091 5.47488 0.417314 -1.45722e-09 -2.21048e-10 -2.74489e-09 2.90554 0.965183 0.102902 -1.45721e-09 -2.21049e-10 -2.74489e-09 10.2786 0.731801 0.0259123 -1.45722e-09 -2.2105e-10 -2.74488e-09 2.22167 -0.733487 -0.20892 2.036e-13 -1.68764e-12 1.95641e-13 -65.6478 37.9488 5.53762 11.9408 -5.89467 -20.8938 0.896578 -28.945 4.36096 -1.5316e-09 4.14802e-10 4.56787e-09 -2.7549e-09 7.27098e-10 7.84399e-09 -1.53161e-09 4.14802e-10 4.56787e-09 -7.73091 5.47488 -0.417314 -1.53161e-09 4.14802e-10 4.56786e-09 -2.90554 0.965183 -0.102902 -1.53161e-09 4.14802e-10 4.56786e-09 -10.2786 0.731801 -0.0259123 -1.5316e-09 4.14804e-10 4.56785e-09 -2.22167 -0.733487 0.20892 -2.03217e-16 0.0 -3.88251e-19 6.53158 -22.3104 16.9201 -0.0690861 17.9823 0.517656 -2.88525 -5.40068 -8.8188 2.03217e-16 0.0 3.88251e-19 13.8499 -10.245 0.402808 -0.0225525 12.8662 -0.390225 0.841016 -2.62473 -0.0334669
3.10174 80.3251 171.651 -151.727 -82.6991 169.388 -0.404636 -34.5293 0.964384 0.343043 6.24301 -0.473475 6.83425 -4.65285 5.11901 -5.22775 6.97191 7.55027 -0.0 0.0 0.0 -0.0 0.0 0.0 2.13841e-13 -1.84705e-12 2.05195e-13 83.5078 23.5202 -15.2686 -10.8736 -4.68949 19.4503 -0.272918 -14.7087 -2.1143 -1.63208e-09 -3.02676e-10 -2.75962e-09 -2.79772e-09 -5.16703e-10 -4.78327e-09 -1.63208e-09 -3.02672e-10 -2.75963e-09 7.73091 5.47488 0.417314 -1.63208e-09 -3.02671e-10 -2.75963e-09 2.90554 0.965183 0.102902 -1.63208e-09 -3.02673e-10 -2.75962e-09 10.2786 0.731801 0.0259123 -1.63209e-09 -3.02673e-10 -2.75961e-09 2.22167 -0.733487 -0.20892 2.13958e-13 -1.84706e-12 2.05096e-13 -81.4664 46.233 7.73446 13.9993 -6.95383 -25.5525 1.81855 -35.3009 5.71106 -1.72617e-09 4.49746e-10 4.7567e-09 -3.09541e-09 7.87028e-10 8.16594e-09 -1.72618e-09 4.49747e-10 4.7567e-09 -7.73091 5.47488 -0.417314 -1.72618e-09 4.49746e-10 4.75669e-09 -2.90554 0.965183 -0.102902 -1.72618e-09 4.49746e-10 4.75669e-09 -10.2786 0.731801 -0.0259123 -1.72617e-09 4.49748e-10 4.75668e-09 -2.22167 -0.733487 0.20892 -2.03217e-16 0.0 -3.88251e-19 10.1754 -26.237 21.3125 -0.141124 22.3895 0.664367 -3.82866 -7.41328 -10.7928 2.03217e-16 0.0 3.88251e-19 17.5132 -10.373 0.417145 -0.024761 13.0744 -0.418998 0.924622 -2.70346 -0.0394036
3.12476 80.325 171.65 -152.218 -82.6581 169.85 -0.229972 -36.905 1.0401 0.475446 6.66167 -0.498762 7.29274 -5.04869 5.50676 -5.5524 7.53493 8.14834 -0.0 0.0 0.0 -0.0 0.0 0.0 1.54571e-13 -1.46265e-12 1.33589e-13 89.8757 25.3756 -16.6075 -11.577 -5.01366 20.9421 -0.351934 -16.1444 -2.33557 -1.2727e-09 -3.8081e-10 -1.52219e-09 -2.18857e-09 -6.53356e-10 -2.64051e-09 -1.27269e-09 -3.80807e-10 -1.52219e-09 7.73091 5.47488 0.417314 -1.2727e-09 -3.80803e-10 -1.52219e-09 2.90554 0.965183 0.102902 -1.27269e-09 -3.80808e-10 -1.52219e-09 10.2786 0.731801 0.0259123 -1.27271e-09 -3.80803e-10 -1.52218e-09 2.22167 -0.733487 -0.20892 1.54667e-13 -1.46265e-12 1.33489e-13 -87.9972 49.5702 8.90831 14.7729 -7.34653 -27.4231 2.30127 -37.8978 6.34363 -1.38498e-09 3.46687e-10 3.10605e-09 -2.46641e-09 6.03007e-10 5.326e-09 -1.38499e-09 3.46688e-10 3.10605e-09 -7.73091 5.47488 -0.417314 -1.38498e-09 3.46687e-10 3.10605e-09 -2.90554 0.965183 -0.102902 -1.38499e-09 3.46687e-10 3.10604e-09 -10.2786 0.731801 -0.0259123 -1.38498e-09 3.46688e-10 3.10604e-09 -2.22167 -0.733487 0.20892 -2.03217e-16 0.0 -3.88251e-19 11.7616 -27.6961 23.1151 -0.176321 24.1435 0.725808 -4.22954 -8.20727 -11.5249 2.03217e-16 0.0 3.88251e-19 18.943 -10.4306 0.423453 -0.0256208 13.1701 -0.431193 0.95718 -2.74116 -0.0415456
3.14683 80.3248 171.648 -152.733 -82.6165 170.334 -0.38678 -36.5614 0.981352 0.525906 6.58477 -0.500275 7.15694 -5.11666 5.50321 -5.33961 7.60194 8.17403 -0.0 0.0 0.0 -0.0 0.0 0.0 4.6152e-14 -6.93292e-13 4.87644e-15 89.1282 25.6683 -16.5424 -11.5879 -5.03541 20.949 -0.370659 -16.6047 -2.40585 -5.35643e-10 -4.5702e-10 6.00081e-10 -9.34863e-10 -7.88148e-10 1.03501e-09 -5.3564e-10 -4.57019e-10 6.00073e-10 7.73091 5.47488 0.417314 -5.35645e-10 -4.5701e-10 6.00079e-10 2.90554 0.965183 0.102902 -5.35638e-10 -4.57018e-10 6.00084e-10 10.2786 0.731801 0.0259123 -5.35652e-10 -4.57008e-10 6.00093e-10 2.22167 -0.733487 -0.20892 4.61803e-14 -6.93294e-13 4.74287e-15 -87.3903 49.4186 8.91955 14.7232 -7.33241 -27.2881 2.27579 -37.8268 6.32071 -6.64837e-10 1.45924e-10 1.55031e-10 -1.15166e-09 2.46282e-10 2.50844e-10 -6.64844e-10 1.45924e-10 1.55032e-10 -7.73091 5.47488 -0.417314 -6.64838e-10 1.45923e-10 1.55028e-10 -2.90554 0.965183 -0.102902 -6.6484e-10 1.45923e-10 1.55025e-10 -10.2786 0.731801 -0.0259123 -6.64834e-10 1.45923e-10 1.55018e-10 -2.22167 -0.733487 0.20892 -2.03217e-16 0.0 -3.88251e-19 11.5257 -27.5583 22.8761 -0.172625 24.0023 0.719815 -4.17179 -8.14765 -11.355 2.03217e-16 0.0 3.88251e-19 18.7774 -10.4378 0.424014 -0.0256253 13.1854 -0.431513 0.953285 -2.74949 -0.0409781
3.16871 80.3249 171.647 -153.211 -82.5745 170.783 -0.660401 -35.1323 0.877257 0.538057 6.31096 -0.491351 6.79613 -5.04494 5.33866 -4.92444 7.45509 7.95791 -0.0 0.0 0.0 -0.0 0.0 0.0 -6.328e-14 1.12557e-13 -1.21068e-13 85.5391 25.4077 -15.918 -11.3404 -4.9488 20.3911 -0.36255 -16.696 -2.41754 2.19955e-10 -5.51573e-10 2.75468e-09 3.50525e-10 -9.54776e-10 4.76631e-09 2.19958e-10 -5.51574e-10 2.75467e-09 7.73091 5.47488 0.417314 2.19953e-10 -5.51561e-10 2.75468e-09 2.90554 0.965183 0.102902 2.19959e-10 -5.51572e-10 2.75469e-09 10.2786 0.731801 0.0259123 2.19946e-10 -5.51557e-10 2.75469e-09 2.22167 -0.733487 -0.20892 -6.33275e-14 1.12556e-13 -1.21244e-13 -83.9036 47.8852 8.44666 14.3458 -7.15669 -26.3503 2.03931 -36.6788 6.02838 8.1476e-11 -6.47176e-11 -2.86127e-09 2.0994e-10 -1.2756e-10 -4.93662e-09 8.14696e-11 -6.47186e-11 -2.86127e-09 -7.73091 5.47488 -0.417314 8.14741e-11 -6.47189e-11 -2.86127e-09 -2.90554 0.965183 -0.102902 8.14716e-11 -6.47199e-11 -2.86128e-09 -10.2786 0.731801 -0.0259123 8.14805e-11 -6.47204e-11 -2.86128e-09 -2.22167 -0.733487 0.20892 -2.03217e-16 0.0 -3.88251e-19 10.5686 -26.7777 21.8217 -0.153234 23.0939 0.686588 -3.9312 -7.7426 -10.8262 2.03217e-16 0.0 3.88251e-19 17.9746 -10.4231 0.422087 -0.0252874 13.1648 -0.426888 0.934847 -2.74421 -0.0393757
3.19032 80.3257 171.644 -153.6 -82.5327 171.146 -0.841693 -34.2516 0.813741 0.555648 6.13887 -0.48534 6.58235 -5.02141 5.24378 -4.64789 7.3754 7.83172 -0.0 0.0 0.0 -0.0 0.0 0.0 -1.25588e-13 6.06442e-13 -1.84373e-13 83.426 25.5919 -15.6066 -11.2614 -4.94393 20.1892 -0.369173 -17.0239 -2.4663 6.34975e-10 -6.84738e-10 4.08911e-09 1.05473e-09 -1.18694e-09 7.0764e-09 6.34979e-10 -6.84739e-10 4.08909e-09 7.73091 5.47488 0.417314 6.34973e-10 -6.84725e-10 4.08911e-09 2.90554 0.965183 0.102902 6.3498e-10 -6.84737e-10 4.08911e-09 10.2786 0.731801 0.0259123 6.34968e-10 -6.8472e-10 4.08912e-09 2.22167 -0.733487 -0.20892 -1.25684e-13 6.06442e-13 -1.84572e-13 -81.8628 47.0702 8.22614 14.1287 -7.05879 -25.8134 1.91113 -36.0426 5.86982 5.01168e-10 -1.97411e-10 -4.70777e-09 9.79501e-10 -3.62933e-10 -8.11346e-09 5.01162e-10 -1.97412e-10 -4.70777e-09 -7.73091 5.47488 -0.417314 5.01165e-10 -1.97412e-10 -4.70777e-09 -2.90554 0.965183 -0.102902 5.01162e-10 -1.97414e-10 -4.70777e-09 -10.2786 0.731801 -0.0259123 5.01173e-10 -1.97414e-10 -4.70778e-09 -2.22167 -0.733487 0.20892 -2.03217e-16 0.0 -3.88251e-19 10.0067 -26.3023 21.1874 -0.14216 22.5464 0.666783 -3.78496 -7.50033 -10.4826 2.03217e-16 0.0 3.88251e-19 17.493 -10.4146 0.420932 -0.0250978 13.1528 -0.42425 0.923778 -2.74105 -0.0384134
